<?xml version="1.0" standalone="no"?>
<!DOCTYPE svg PUBLIC "-//W3C//DTD SVG 20010904//EN"
 "http://www.w3.org/TR/2001/REC-SVG-20010904/DTD/svg10.dtd">
<svg version="1.0" xmlns="http://www.w3.org/2000/svg"
 width="794.000000pt" height="1123.000000pt" viewBox="0 0 794.000000 1123.000000"
 preserveAspectRatio="xMidYMid meet">

<g transform="translate(0.000000,1123.000000) scale(0.100000,-0.100000)"
fill="#000000" stroke="none">
<path d="M5185 10379 c-139 -13 -249 -37 -376 -79 -275 -91 -462 -228 -546
-397 -33 -67 -38 -86 -38 -147 0 -93 41 -182 122 -267 84 -88 161 -135 470
-285 464 -225 529 -263 659 -386 83 -79 124 -147 124 -209 0 -57 -44 -131
-123 -206 -121 -115 -261 -201 -707 -433 -462 -241 -617 -332 -778 -457 -142
-111 -200 -205 -189 -305 8 -64 34 -102 107 -156 132 -96 227 -132 653 -243
343 -89 442 -121 542 -172 162 -84 191 -148 117 -263 -41 -62 -97 -127 -252
-289 -222 -232 -319 -414 -290 -547 29 -139 122 -216 362 -303 l98 -35 21 23
c25 26 42 66 35 82 -2 7 -22 15 -44 19 -76 12 -227 67 -280 102 -98 65 -115
131 -62 243 44 93 98 164 270 356 231 258 289 360 277 480 -11 107 -72 178
-226 258 -117 62 -247 103 -576 182 -355 85 -431 107 -531 154 -129 61 -146
92 -95 172 63 100 270 234 746 482 641 334 880 507 988 719 28 56 32 72 32
148 0 118 -29 175 -149 296 -144 144 -297 236 -645 389 -354 155 -476 227
-536 317 -43 64 -47 149 -9 217 97 180 393 340 740 402 169 30 408 31 516 1
149 -41 266 -118 283 -185 19 -75 -66 -192 -179 -247 -132 -65 -320 -88 -434
-55 -95 29 -100 59 -20 129 l49 43 -23 28 c-30 35 -51 29 -112 -30 -89 -87
-71 -182 47 -239 150 -73 429 -47 587 54 112 72 186 195 178 295 -9 111 -79
193 -221 260 -177 84 -339 107 -582 84z"/>
<path d="M4600 4650 c-293 -15 -743 -49 -975 -75 -645 -73 -1112 -206 -1165
-335 -15 -37 -15 -103 0 -140 9 -21 37 -45 96 -81 116 -70 190 -101 329 -139
66 -18 125 -35 130 -38 6 -4 18 -5 28 -4 10 2 30 -4 44 -13 15 -10 34 -14 48
-11 29 7 55 -2 55 -20 0 -13 -24 -19 -57 -15 -7 1 -17 -9 -24 -21 -6 -13 -24
-36 -39 -53 -28 -31 -60 -111 -60 -152 0 -16 -6 -23 -19 -23 -11 0 -41 -17
-68 -38 -26 -22 -55 -41 -63 -45 -11 -4 -10 -6 4 -6 10 -1 38 15 62 35 24 19
54 36 66 37 28 1 38 14 38 48 0 43 29 91 50 84 23 -7 54 45 45 75 -7 22 12 34
66 44 38 7 49 -3 49 -42 0 -8 7 -23 15 -32 14 -15 13 -20 -5 -42 -17 -22 -17
-27 -5 -32 19 -7 19 -26 0 -26 -8 0 -15 -5 -15 -11 0 -6 -7 -26 -16 -45 -22
-46 -12 -53 24 -17 26 25 32 27 47 17 10 -7 23 -23 29 -36 10 -20 73 -51 132
-65 12 -3 40 5 63 16 35 18 42 27 47 61 8 49 34 75 68 66 17 -4 44 4 87 26
l62 32 21 -26 c12 -15 29 -38 39 -52 22 -32 111 -90 152 -100 67 -15 85 -27
85 -57 0 -50 18 -79 57 -95 70 -28 81 -36 125 -96 24 -33 73 -88 109 -122 45
-41 70 -73 76 -96 12 -43 6 -268 -8 -333 -7 -29 -8 -78 -4 -123 6 -64 5 -73
-9 -68 -8 3 -20 21 -26 39 -11 33 -43 51 -72 40 -9 -4 -19 4 -26 20 -12 26
-54 35 -67 15 -4 -6 -14 -2 -24 11 -15 19 -20 20 -40 9 -28 -14 -45 -2 -46 33
0 17 -6 22 -25 22 -21 0 -25 -5 -25 -30 0 -24 -7 -33 -35 -47 -19 -10 -48 -18
-64 -18 -16 0 -37 -6 -45 -13 -26 -21 -121 -41 -134 -28 -18 18 -33 13 -96
-30 -49 -34 -63 -39 -79 -30 -11 6 -43 12 -71 14 -62 5 -81 20 -81 63 0 19 -5
42 -11 52 -9 14 -8 25 5 50 21 40 20 71 -1 94 -16 18 -16 18 0 12 9 -3 17 -1
17 4 0 6 -9 14 -20 17 -11 4 -28 21 -37 38 -8 18 -21 35 -26 39 -8 5 -7 15 3
33 8 15 14 47 12 71 -1 24 -3 63 -4 87 -2 31 4 50 22 75 21 28 22 34 10 42
-12 8 -13 14 -2 42 8 21 8 36 2 42 -7 7 -10 1 -10 -16 0 -14 -9 -37 -21 -52
-19 -24 -19 -26 -3 -26 14 0 15 -3 6 -12 -10 -10 -15 -10 -22 2 -5 9 -5 19 0
24 5 5 4 16 -2 26 -10 15 -14 16 -25 5 -7 -8 -13 -18 -13 -24 0 -18 -36 -12
-55 9 -15 17 -16 22 -4 36 11 13 11 18 2 21 -10 4 -9 8 2 20 24 24 17 39 -22
49 -32 8 -38 13 -35 34 2 24 2 24 -15 8 -14 -15 -15 -21 -4 -42 7 -13 10 -29
6 -35 -4 -7 -2 -18 5 -26 9 -11 7 -12 -9 -8 -15 4 -21 1 -21 -11 0 -9 5 -16
11 -16 7 0 6 -9 -4 -23 -14 -21 -13 -24 4 -35 29 -18 49 -15 49 9 l0 20 26
-20 c15 -12 35 -21 45 -21 11 0 19 -7 19 -15 0 -9 9 -15 21 -15 14 0 19 -5 17
-17 -2 -12 -11 -17 -24 -15 -32 4 -88 -39 -101 -79 -6 -20 -9 -55 -6 -77 5
-36 9 -42 29 -42 12 0 26 -4 29 -10 3 -5 17 -10 31 -10 17 0 24 -5 24 -20 0
-11 7 -20 15 -20 12 0 35 -28 35 -43 0 -3 -12 -7 -27 -10 -22 -5 -35 -19 -60
-72 l-32 -66 20 -20 c18 -18 30 -20 70 -17 50 5 59 -1 59 -43 0 -14 -7 -19
-25 -19 -14 0 -34 -9 -45 -20 -11 -11 -26 -20 -33 -20 -7 0 -22 -7 -33 -15
-10 -8 -34 -15 -52 -15 -23 0 -47 -11 -76 -35 -48 -39 -67 -44 -59 -17 2 10
-3 24 -11 31 -9 8 -16 18 -16 24 0 6 -7 31 -17 55 -13 36 -20 43 -37 38 -28
-7 -46 11 -46 46 0 33 -23 47 -51 30 -17 -11 -18 -8 -16 26 2 37 2 37 -35 35
-26 -2 -38 2 -38 11 0 8 -10 16 -21 19 -17 5 -20 11 -17 32 3 14 1 28 -3 31
-5 3 -9 16 -9 29 0 13 -4 27 -10 30 -5 3 -10 1 -10 -4 0 -7 -7 -7 -20 1 -16
10 -24 10 -40 0 -24 -15 -57 -16 -66 -1 -3 6 -15 8 -26 6 -25 -7 -91 50 -83
71 3 8 0 21 -7 29 -6 8 -17 35 -23 60 -7 28 -21 53 -34 61 -19 13 -21 13 -15
-2 4 -12 2 -15 -9 -10 -8 3 -18 1 -21 -4 -8 -14 -46 -3 -46 13 0 7 5 15 12 17
14 5 20 38 7 38 -5 0 -9 6 -9 14 0 7 -11 21 -25 30 -20 13 -25 14 -25 2 0 -7
9 -16 20 -19 11 -3 20 -10 20 -16 0 -18 -15 -13 -39 13 -19 20 -22 32 -19 97
2 53 7 73 16 71 15 -3 15 3 0 27 -9 15 -9 47 1 143 15 148 20 170 35 161 7 -5
7 -2 -1 8 -8 10 -10 34 -6 72 5 45 11 60 29 72 15 9 24 25 24 40 0 25 -1 25
-81 25 -56 0 -78 -3 -73 -11 4 -7 0 -9 -12 -5 -11 3 -25 2 -32 -2 -13 -9 -42
-221 -62 -457 -7 -71 -15 -133 -18 -137 -13 -13 -208 -121 -272 -150 -365
-167 -588 -195 -735 -93 -101 70 -145 175 -145 350 1 293 144 597 343 726 161
104 364 111 503 16 42 -28 89 -83 158 -182 11 -17 18 -18 42 -10 39 14 40 33
8 102 -34 72 -131 171 -203 207 -133 68 -348 72 -497 10 -149 -62 -290 -216
-385 -418 -113 -243 -125 -579 -26 -748 80 -137 255 -227 443 -228 185 0 493
101 714 235 32 19 60 35 64 35 3 0 6 -21 6 -47 0 -57 23 -217 45 -323 41 -197
136 -415 253 -580 79 -112 264 -301 377 -387 339 -255 763 -415 1275 -480 185
-23 612 -23 799 0 281 36 648 140 851 242 565 284 980 798 1169 1447 123 420
161 781 127 1178 -18 205 -23 219 -77 204 l-31 -9 -3 -220 c-5 -361 -24 -532
-86 -805 -36 -156 -37 -159 -59 -153 -24 6 -25 0 -5 -21 14 -14 14 -23 -6 -88
-12 -40 -30 -93 -39 -118 -10 -25 -21 -53 -24 -62 -5 -17 -8 -16 -52 2 -48 21
-164 27 -249 15 -22 -4 -62 -8 -89 -9 -37 -2 -53 -8 -68 -26 -10 -13 -17 -28
-15 -34 4 -12 -17 -36 -32 -36 -5 0 -14 -7 -19 -16 -8 -14 -10 -14 -21 0 -8 9
-21 16 -30 16 -13 0 -13 2 -2 9 18 12 5 48 -24 67 -36 23 -60 2 -32 -28 39
-41 40 -46 18 -75 -24 -29 -22 -68 6 -111 10 -17 20 -21 36 -16 12 3 19 3 15
-1 -4 -5 -3 -14 3 -21 14 -17 -1 -44 -48 -84 -21 -17 -31 -30 -23 -28 23 5 18
-25 -7 -37 -24 -12 -24 -13 24 -86 20 -30 21 -35 8 -45 -18 -13 -19 -36 -4
-51 6 -6 7 -13 1 -16 -15 -10 -47 44 -72 123 -13 41 -27 77 -30 80 -24 17 -41
76 -36 119 20 155 19 173 -11 231 -24 46 -39 61 -96 94 -99 57 -142 59 -258
10 -95 -40 -155 -88 -208 -166 -14 -19 -40 -43 -58 -53 -18 -10 -31 -20 -29
-22 2 -3 15 1 28 8 21 11 22 11 8 -5 -8 -10 -39 -29 -70 -42 -123 -54 -170
-95 -170 -151 0 -38 -34 -94 -92 -150 -56 -55 -91 -73 -139 -73 -16 0 -47 -9
-69 -20 -47 -24 -50 -24 -50 -4 0 8 -5 12 -10 9 -6 -4 -8 -11 -4 -16 6 -10
-122 -6 -169 6 -32 8 -47 38 -47 92 0 26 -8 42 -31 64 -17 16 -35 29 -39 29
-26 0 -29 140 -5 230 9 35 11 61 4 83 -5 18 -6 64 -3 103 4 40 3 98 -1 130 -7
56 -9 59 -99 148 -50 50 -110 113 -131 139 -29 35 -54 53 -90 65 -49 18 -50
18 -53 64 -4 55 -20 72 -87 90 -64 16 -160 80 -181 120 -9 17 -32 46 -50 63
-19 19 -34 42 -34 55 0 22 2 23 63 16 291 -29 786 -54 1222 -62 187 -3 352 -9
367 -14 17 -5 30 -5 33 1 4 5 45 9 93 9 48 0 143 5 212 10 122 9 125 9 142
-13 14 -18 15 -23 3 -25 -18 -4 -19 -15 -2 -45 23 -42 40 -57 57 -52 14 4 18
-3 23 -34 6 -45 54 -113 77 -109 29 6 23 54 -10 88 -22 23 -30 39 -26 53 8 30
-22 86 -50 93 -13 3 -24 13 -24 21 0 8 -4 12 -9 9 -5 -3 -11 1 -15 9 -4 11 1
15 17 15 157 2 715 51 734 65 15 12 15 16 -1 57 -32 85 26 79 -680 68 -1269
-19 -2254 21 -2869 115 -319 50 -502 98 -536 142 -16 19 -18 29 -10 39 18 22
249 92 408 124 454 90 1169 156 2076 191 513 20 1504 -2 1692 -37 26 -5 37 -1
57 20 26 25 33 50 17 60 -17 11 -309 65 -431 80 -294 37 -511 48 -1060 51
-300 2 -624 -1 -720 -5z m-1063 -891 l181 -22 11 -38 c7 -22 12 -42 12 -46 1
-14 -86 -52 -119 -53 -51 0 -90 -33 -94 -77 -2 -30 -10 -41 -35 -56 -30 -17
-35 -18 -64 -3 -18 9 -40 16 -50 16 -9 0 -36 24 -59 53 -40 50 -42 54 -36 103
4 36 1 60 -9 80 -8 16 -15 34 -15 41 0 6 -12 20 -27 31 l-27 20 75 -13 c41 -7
157 -23 256 -36z m-417 -43 c0 -3 -4 -8 -10 -11 -5 -3 -10 -1 -10 4 0 6 5 11
10 11 6 0 10 -2 10 -4z m-29 -53 c-8 -15 -10 -15 -11 -2 0 17 10 32 18 25 2
-3 -1 -13 -7 -23z m2842 -82 c3 -14 1 -18 -9 -14 -15 6 -18 16 -7 26 9 10 10
9 16 -12z m-3568 -561 c-7 -11 57 -19 75 -10 22 12 50 -7 50 -34 0 -13 7 -29
15 -36 8 -7 15 -25 15 -40 0 -32 45 -76 88 -86 57 -12 92 -26 92 -35 0 -6 10
2 23 17 l24 27 21 -30 c18 -26 20 -36 11 -60 -8 -25 -6 -37 14 -72 15 -25 27
-38 32 -32 8 14 76 43 83 36 3 -3 0 -11 -6 -17 -31 -31 2 -73 39 -49 16 10 19
8 19 -11 1 -26 32 -68 52 -68 14 -1 49 -43 52 -65 1 -7 7 -19 14 -27 7 -9 9
-29 5 -51 -5 -32 -3 -37 13 -36 11 0 33 9 49 20 17 10 40 23 53 29 12 5 22 14
22 20 0 5 15 10 34 10 19 0 45 9 60 21 17 13 33 18 47 14 15 -5 22 -2 26 14 7
26 50 29 68 4 8 -10 31 -18 61 -20 27 -3 64 -13 82 -24 18 -10 34 -19 36 -19
1 0 18 14 36 30 50 44 90 63 106 49 17 -14 49 -7 149 32 11 4 37 10 58 14 35
5 37 4 37 -19 0 -15 -8 -30 -20 -36 -11 -6 -20 -16 -20 -23 0 -7 -9 -20 -20
-30 -24 -20 -26 -47 -5 -47 8 0 15 -5 15 -11 0 -23 45 -3 59 26 8 16 20 35 26
42 7 6 18 25 25 42 13 34 2 61 -26 61 -27 0 -14 19 19 26 53 12 103 8 128 -9
20 -15 25 -15 40 -2 17 17 29 9 42 -28 5 -14 13 -17 41 -12 31 6 34 4 44 -23
7 -19 31 -44 69 -70 80 -55 91 -70 94 -125 2 -30 9 -53 20 -63 44 -39 220 -48
297 -14 72 32 113 21 57 -16 -36 -23 -93 -34 -123 -23 -13 5 -27 7 -30 4 -4
-3 4 -8 16 -11 19 -6 17 -10 -27 -44 -26 -21 -65 -61 -86 -90 -44 -60 -53 -55
-56 29 -3 61 -18 55 -46 -17 -9 -26 -23 -58 -30 -72 -16 -32 -17 -48 -1 -32
21 21 27 13 11 -18 -8 -17 -39 -48 -68 -70 -68 -50 -85 -75 -85 -123 0 -25 -4
-36 -11 -31 -6 3 -9 15 -6 25 6 23 -19 25 -45 5 -17 -12 -17 -14 1 -31 11 -9
24 -15 28 -12 5 3 15 2 22 -2 10 -6 10 -17 1 -50 -6 -22 -13 -41 -16 -41 -3 0
-3 8 0 18 7 21 -2 35 -31 51 -28 15 -33 14 -33 -4 0 -19 -7 -19 -26 0 -9 8
-23 15 -32 15 -15 0 -77 -58 -127 -119 -18 -22 -18 -24 -2 -18 11 4 16 3 12
-4 -4 -5 -14 -7 -24 -4 -11 3 -25 -5 -39 -25 -28 -37 -38 -37 -194 -4 -314 66
-617 188 -838 336 -43 29 -74 55 -69 59 7 4 4 9 -5 12 -9 4 -16 13 -16 22 0
17 -17 20 -22 4 -2 -6 -32 12 -66 41 -34 28 -59 57 -55 62 3 6 2 8 -4 5 -10
-7 -62 45 -132 131 -42 51 -43 53 -26 72 30 33 -2 69 -34 38 -10 -11 -16 -8
-31 12 -11 14 -20 35 -20 48 0 12 -5 22 -10 22 -16 0 -51 63 -44 80 3 8 2 11
-2 7 -20 -20 -103 256 -129 428 -19 130 -19 156 0 149 8 -4 13 -10 10 -14z
m3460 -112 c14 -6 25 -18 25 -26 0 -9 3 -12 6 -9 22 21 95 -73 115 -148 19
-69 -19 -179 -46 -135 -3 6 -14 10 -23 10 -12 0 -8 -6 11 -18 33 -19 77 -101
117 -214 33 -90 76 -148 139 -185 25 -15 59 -40 75 -56 l29 -29 -74 -70 c-169
-159 -309 -257 -504 -354 -154 -76 -242 -108 -248 -91 -3 8 -10 7 -23 -5 -26
-22 -115 -51 -256 -82 -234 -52 -306 -60 -585 -60 -144 -1 -264 2 -268 6 -4 3
3 19 14 35 11 15 32 62 47 103 14 41 33 84 42 95 16 19 16 19 0 6 -17 -12 -18
-10 -18 30 0 24 6 55 13 68 13 26 105 96 114 87 3 -3 -5 -19 -17 -35 -35 -50
-8 -86 42 -55 6 4 8 3 5 -3 -4 -6 0 -13 8 -17 19 -7 55 44 55 79 0 22 3 25 20
20 15 -5 22 0 30 20 16 41 13 65 -7 58 -12 -5 -15 -2 -10 10 4 11 1 17 -8 17
-20 0 -19 5 7 40 15 20 24 26 29 18 5 -7 13 3 24 27 27 66 70 95 175 119 24 5
213 180 239 221 9 15 11 16 7 3 -7 -24 -1 -23 45 10 38 27 49 42 29 42 -5 0
-10 5 -10 10 0 6 13 9 29 8 22 -2 36 6 57 31 33 39 63 90 64 109 0 22 -87 -45
-119 -91 -16 -23 -40 -52 -54 -65 l-25 -24 10 49 c12 60 54 106 111 123 73 21
104 43 156 108 28 34 53 62 56 62 20 -1 25 1 25 11 0 5 -5 7 -11 3 -16 -9 6
29 25 45 8 7 54 32 101 57 93 47 156 57 210 32z m700 -39 c6 11 116 2 130 -10
5 -5 17 -9 26 -9 9 0 22 -6 28 -14 19 -23 -86 -248 -196 -421 -58 -90 -145
-205 -155 -205 -4 0 -8 33 -8 74 0 72 -1 74 -25 74 -35 0 -38 -23 -17 -117 18
-74 18 -81 3 -81 -27 0 -62 139 -42 164 8 10 9 16 1 21 -5 3 -10 13 -10 22 0
11 7 14 27 10 46 -9 55 0 48 52 -12 86 -42 161 -71 171 -14 6 -27 22 -31 39
-8 29 -8 29 -45 16 -43 -14 -52 -8 -61 41 -11 57 18 76 65 42 14 -10 20 -9 35
5 10 10 27 24 37 31 11 7 20 22 21 32 5 44 13 49 90 51 41 1 82 6 92 11 11 7
24 7 35 1 10 -5 19 -5 23 0z m-287 -566 c27 -125 27 -126 4 -114 -25 13 -38
31 -22 31 7 0 6 6 -2 16 -30 38 -55 61 -68 66 -19 6 -3 28 20 28 10 0 22 5 25
10 15 24 34 7 43 -37z m-1639 -346 c-2 -1 -13 -9 -24 -17 -19 -14 -19 -14 -6
3 7 9 18 17 24 17 6 0 8 -1 6 -3z m-48 -60 c-10 -9 -11 -8 -5 6 3 10 9 15 12
12 3 -3 0 -11 -7 -18z m-349 -424 c-2 -9 9 -13 32 -13 28 0 41 7 65 37 17 21
31 32 31 24 0 -7 -15 -27 -32 -45 -29 -28 -38 -32 -74 -28 -37 3 -41 7 -41 30
0 15 -3 36 -7 47 -4 11 1 7 10 -10 10 -16 17 -36 16 -42z"/>
<path d="M2761 2654 c0 -11 3 -14 6 -6 3 7 2 16 -1 19 -3 4 -6 -2 -5 -13z"/>
<path d="M2588 2570 c18 -11 40 -36 48 -55 15 -37 24 -44 24 -20 0 19 -73 95
-91 95 -8 0 1 -9 19 -20z"/>
<path d="M2728 2523 c4 -20 7 -23 10 -10 2 9 8 17 13 17 6 0 7 5 4 10 -14 22
-32 10 -27 -17z"/>
<path d="M2936 2425 c4 -8 11 -15 16 -15 6 0 5 6 -2 15 -7 8 -14 15 -16 15 -2
0 -1 -7 2 -15z"/>
<path d="M2690 2400 c0 -5 5 -10 11 -10 5 0 7 5 4 10 -3 6 -8 10 -11 10 -2 0
-4 -4 -4 -10z"/>
<path d="M2860 2391 c0 -5 7 -12 16 -15 14 -5 15 -4 4 9 -14 17 -20 19 -20 6z"/>
<path d="M3725 2379 c-12 -19 -15 -64 -5 -79 8 -13 11 -12 24 5 20 26 21 85 2
85 -8 0 -18 -5 -21 -11z"/>
<path d="M2825 2290 c3 -5 8 -10 11 -10 2 0 4 5 4 10 0 6 -5 10 -11 10 -5 0
-7 -4 -4 -10z"/>
<path d="M3907 2283 c-12 -12 -7 -22 8 -17 8 4 15 10 15 15 0 11 -14 12 -23 2z"/>
<path d="M3424 2265 c-8 -32 -5 -40 16 -41 16 -1 19 3 14 20 -10 33 -24 43
-30 21z"/>
<path d="M3080 2255 c0 -8 5 -15 10 -15 6 0 10 7 10 15 0 8 -4 15 -10 15 -5 0
-10 -7 -10 -15z"/>
<path d="M3986 2248 c-9 -12 -16 -32 -16 -43 0 -19 15 -23 77 -16 13 1 32 50
26 69 -8 21 -70 15 -87 -10z"/>
<path d="M3910 2231 c0 -5 7 -12 16 -15 22 -9 24 -8 24 9 0 8 -9 15 -20 15
-11 0 -20 -4 -20 -9z"/>
<path d="M3006 2198 c3 -5 10 -6 15 -3 5 4 9 1 9 -4 0 -6 5 -11 10 -11 6 0 10
7 10 15 0 10 -9 14 -24 13 -14 -1 -22 -6 -20 -10z"/>
<path d="M3786 2174 c-3 -9 -6 -29 -6 -46 0 -25 3 -29 23 -26 12 2 21 6 20 11
-2 4 -3 23 -3 42 0 37 -22 49 -34 19z"/>
<path d="M2966 2172 c-12 -11 -5 -24 9 -18 18 6 20 -5 4 -21 -8 -8 -1 -17 29
-32 51 -26 52 -26 52 -1 0 11 -7 20 -15 20 -8 0 -15 8 -15 18 0 17 -53 46 -64
34z"/>
<path d="M2728 2163 c7 -3 16 -2 19 1 4 3 -2 6 -13 5 -11 0 -14 -3 -6 -6z"/>
<path d="M3040 2166 c0 -2 7 -6 15 -10 8 -3 15 -1 15 4 0 6 -7 10 -15 10 -8 0
-15 -2 -15 -4z"/>
<path d="M3480 2151 c0 -11 9 -21 22 -24 30 -8 35 -1 13 23 -23 25 -35 26 -35
1z"/>
<path d="M3711 2134 c0 -11 3 -14 6 -6 3 7 2 16 -1 19 -3 4 -6 -2 -5 -13z"/>
<path d="M2781 2118 c0 -9 -4 -25 -7 -35 -5 -17 -5 -17 6 0 6 10 9 25 7 35 -4
15 -5 15 -6 0z"/>
<path d="M4050 2115 c0 -8 2 -15 4 -15 2 0 6 7 10 15 3 8 1 15 -4 15 -6 0 -10
-7 -10 -15z"/>
<path d="M3471 2056 c-28 -15 -39 -38 -40 -78 -2 -55 39 -46 69 16 34 71 24
91 -29 62z"/>
<path d="M2836 2017 c3 -10 9 -15 12 -12 3 3 0 11 -7 18 -10 9 -11 8 -5 -6z"/>
<path d="M3671 2014 c0 -11 3 -14 6 -6 3 7 2 16 -1 19 -3 4 -6 -2 -5 -13z"/>
<path d="M4250 1689 c0 -5 5 -7 10 -4 6 3 10 8 10 11 0 2 -4 4 -10 4 -5 0 -10
-5 -10 -11z"/>
<path d="M5820 2681 c0 -12 70 -64 77 -57 3 3 13 0 21 -7 13 -10 14 -9 10 3
-2 8 -15 16 -28 16 -13 1 -34 13 -46 28 -24 27 -34 32 -34 17z"/>
<path d="M5762 2460 c0 -14 2 -19 5 -12 2 6 2 18 0 25 -3 6 -5 1 -5 -13z"/>
<path d="M5770 2404 c0 -8 5 -12 10 -9 6 4 8 11 5 16 -9 14 -15 11 -15 -7z"/>
<path d="M5480 2230 c0 -5 5 -10 11 -10 5 0 7 5 4 10 -3 6 -8 10 -11 10 -2 0
-4 -4 -4 -10z"/>
<path d="M5170 2181 c0 -6 4 -13 10 -16 6 -3 7 1 4 9 -7 18 -14 21 -14 7z"/>
<path d="M5310 2099 c0 -5 5 -7 10 -4 6 3 10 8 10 11 0 2 -4 4 -10 4 -5 0 -10
-5 -10 -11z"/>
<path d="M4940 2084 c0 -9 5 -14 12 -12 18 6 21 28 4 28 -9 0 -16 -7 -16 -16z"/>
<path d="M4845 2013 c4 -10 11 -33 17 -50 5 -18 13 -33 18 -33 17 0 11 59 -7
80 -21 25 -38 26 -28 3z"/>
<path d="M5926 2015 c-9 -26 -7 -32 5 -12 6 10 9 21 6 23 -2 3 -7 -2 -11 -11z"/>
<path d="M5246 2003 c-20 -72 -18 -82 11 -89 34 -9 44 -22 37 -49 -6 -18 -4
-18 16 3 12 13 20 25 19 26 -2 2 -14 9 -27 15 -16 9 -23 20 -21 39 4 53 -23
95 -35 55z"/>
<path d="M5075 1980 c2 -19 6 -42 8 -50 5 -19 -26 -42 -46 -34 -11 4 -19 -5
-27 -31 -7 -20 -10 -38 -8 -41 3 -2 23 5 46 16 28 14 42 27 42 40 0 11 5 20
10 20 16 0 11 42 -11 80 l-20 35 6 -35z"/>
<path d="M5300 1982 c0 -5 7 -15 15 -22 8 -7 15 -8 15 -2 0 5 -7 15 -15 22 -8
7 -15 8 -15 2z"/>
<path d="M5744 1975 c25 -19 37 -19 30 0 -4 8 -16 15 -28 15 -21 -1 -21 -1 -2
-15z"/>
<path d="M4831 1963 c-1 -7 8 -28 19 -47 11 -21 15 -38 9 -41 -5 -4 -7 -11 -3
-16 4 -6 11 -6 19 1 11 9 11 17 2 39 -16 38 -46 79 -46 64z"/>
<path d="M5590 1955 c0 -8 7 -15 16 -15 14 0 14 3 4 15 -7 8 -14 15 -16 15 -2
0 -4 -7 -4 -15z"/>
<path d="M5429 1930 c-21 -14 1 -29 38 -28 20 1 39 -4 41 -10 2 -8 8 -7 19 4
9 9 12 19 7 24 -12 12 -90 19 -105 10z"/>
<path d="M5677 1884 c-7 -7 20 -53 42 -71 8 -7 22 -13 30 -13 13 1 12 4 -3 15
-11 8 -15 15 -9 15 19 0 1 48 -20 54 -28 7 -32 7 -40 0z"/>
<path d="M5350 1861 c0 -5 7 -14 15 -21 16 -14 18 -10 9 14 -6 17 -24 22 -24
7z"/>
<path d="M5041 1774 c0 -11 3 -14 6 -6 3 7 2 16 -1 19 -3 4 -6 -2 -5 -13z"/>
<path d="M5325 1780 c3 -5 10 -10 16 -10 5 0 9 5 9 10 0 6 -7 10 -16 10 -8 0
-12 -4 -9 -10z"/>
<path d="M5400 1754 c0 -16 23 -44 36 -44 5 0 3 5 -4 12 -7 7 -12 20 -12 30 0
10 -4 18 -10 18 -5 0 -10 -7 -10 -16z"/>
<path d="M5567 1741 c-3 -15 0 -19 14 -18 11 1 18 8 17 16 -5 22 -25 24 -31 2z"/>
<path d="M4451 1696 c-12 -30 -29 -60 -37 -67 -19 -15 -18 -49 1 -49 8 0 15 5
15 11 0 5 5 7 10 4 6 -4 22 0 35 9 13 9 33 16 44 16 21 0 31 18 31 61 0 16 5
29 11 29 7 0 0 9 -14 20 -14 11 -36 20 -49 20 -20 0 -28 -10 -47 -54z"/>
<path d="M5636 1731 c-8 -12 19 -45 32 -38 14 9 3 47 -14 47 -7 0 -15 -4 -18
-9z"/>
<path d="M5290 1699 c0 -5 5 -7 10 -4 6 3 10 8 10 11 0 2 -4 4 -10 4 -5 0 -10
-5 -10 -11z"/>
<path d="M5080 1691 c0 -6 5 -11 11 -11 6 0 9 -7 6 -15 -4 -8 -1 -17 4 -21 7
-4 9 4 7 22 -3 26 -28 48 -28 25z"/>
<path d="M5411 1676 c13 -14 26 -23 28 -20 6 6 -30 44 -42 44 -5 0 1 -11 14
-24z"/>
<path d="M5210 1650 c0 -5 7 -10 16 -10 8 0 12 5 9 10 -3 6 -10 10 -16 10 -5
0 -9 -4 -9 -10z"/>
<path d="M5347 1613 c-14 -13 -7 -25 8 -13 8 6 23 9 36 5 14 -5 19 -4 15 4 -8
12 -49 15 -59 4z"/>
<path d="M4395 1550 c3 -5 10 -10 16 -10 5 0 9 5 9 10 0 6 -7 10 -16 10 -8 0
-12 -4 -9 -10z"/>
<path d="M4481 1518 c-5 -13 -7 -25 -5 -27 5 -6 44 30 44 41 0 18 -31 7 -39
-14z"/>
<path d="M4770 1524 c0 -3 12 -21 27 -40 19 -26 28 -32 34 -22 13 20 11 38 -5
38 -7 0 -19 7 -26 15 -12 15 -30 20 -30 9z"/>
<path d="M5245 4310 c-456 -14 -810 -40 -1083 -80 -74 -11 -139 -20 -146 -20
-7 0 -20 -6 -29 -13 -15 -10 -16 -17 -7 -44 6 -17 17 -33 23 -36 7 -3 71 -1
142 4 432 27 1918 56 2130 41 l110 -8 -105 -7 c-58 -3 -244 -11 -415 -17 -170
-6 -329 -14 -352 -17 -41 -5 -43 -7 -43 -40 0 -18 7 -49 14 -68 15 -34 16 -35
73 -35 181 0 918 61 1035 85 105 23 128 41 128 103 0 24 -7 33 -32 45 -180 85
-757 128 -1443 107z"/>
<path d="M6720 3831 c0 -13 39 -21 47 -9 3 7 1 8 -5 4 -7 -4 -12 -2 -12 3 0 6
-7 11 -15 11 -8 0 -15 -4 -15 -9z"/>
<path d="M2922 3790 c0 -14 2 -19 5 -12 2 6 2 18 0 25 -3 6 -5 1 -5 -13z"/>
<path d="M6765 3790 c-3 -5 1 -10 9 -10 9 0 16 5 16 10 0 6 -4 10 -9 10 -6 0
-13 -4 -16 -10z"/>
<path d="M2899 3733 l-24 -28 28 24 c25 23 32 31 24 31 -2 0 -14 -12 -28 -27z"/>
<path d="M6740 3740 c-9 -6 -10 -10 -3 -10 6 0 15 5 18 10 8 12 4 12 -15 0z"/>
<path d="M6880 3746 c0 -10 28 -13 41 -5 10 6 7 9 -13 9 -16 0 -28 -2 -28 -4z"/>
<path d="M6822 3711 c-11 -7 -11 -9 0 -14 9 -3 15 1 15 9 0 8 -1 14 -1 14 -1
0 -7 -4 -14 -9z"/>
<path d="M6763 3702 c-13 -8 -8 -20 18 -39 13 -11 15 -9 11 17 -4 31 -9 35
-29 22z"/>
<path d="M3155 3660 c3 -5 8 -10 11 -10 2 0 4 5 4 10 0 6 -5 10 -11 10 -5 0
-7 -4 -4 -10z"/>
<path d="M6638 3637 c-28 -11 -39 -28 -15 -23 22 5 67 25 67 31 0 7 -21 4 -52
-8z"/>
<path d="M6805 3640 c-3 -5 -1 -10 4 -10 6 0 11 5 11 10 0 6 -2 10 -4 10 -3 0
-8 -4 -11 -10z"/>
<path d="M5210 3630 c-13 -8 -12 -10 3 -10 9 0 17 5 17 10 0 12 -1 12 -20 0z"/>
<path d="M6157 3623 c-3 -5 0 -19 5 -33 7 -20 11 -22 18 -10 14 23 12 50 -4
50 -8 0 -17 -3 -19 -7z"/>
<path d="M6570 3590 c0 -6 7 -10 15 -10 8 0 15 2 15 4 0 2 -7 6 -15 10 -8 3
-15 1 -15 -4z"/>
<path d="M6723 3586 c-14 -6 -23 -20 -23 -34 0 -12 -8 -26 -17 -29 -15 -6 -14
-7 3 -14 10 -3 25 -2 32 3 6 6 12 7 12 3 0 -4 7 -2 15 5 13 10 19 10 35 -5 11
-10 20 -26 20 -36 0 -10 3 -20 8 -23 4 -2 7 -27 6 -56 -1 -42 3 -53 20 -62 20
-10 20 -10 5 8 -9 12 -15 37 -14 67 0 26 -3 47 -7 47 -4 0 -8 11 -8 25 0 14
-4 25 -9 25 -5 0 -13 9 -16 21 -6 19 -8 19 -30 5 -21 -14 -23 -14 -27 2 -7 27
1 40 22 35 14 -4 20 0 20 11 0 18 -14 19 -47 2z"/>
<path d="M6843 3587 c8 -5 2 -7 -15 -4 -34 5 -37 -13 -5 -32 27 -18 33 -16 29
10 -3 17 0 20 16 15 12 -4 22 -1 25 7 3 9 -5 13 -29 13 -22 0 -29 -3 -21 -9z"/>
<path d="M2664 3531 c4 -5 0 -12 -6 -14 -7 -3 -1 -6 13 -6 16 -1 26 4 26 14 0
8 -9 15 -19 15 -11 0 -17 -4 -14 -9z"/>
<path d="M6641 3507 c0 -10 -12 -22 -26 -27 -24 -9 -35 -30 -16 -30 21 0 53
37 48 55 -4 17 -5 17 -6 2z"/>
<path d="M5069 3468 c-3 -62 22 -105 54 -92 18 7 23 24 7 24 -5 0 -10 9 -10
19 0 11 -4 23 -10 26 -5 3 -10 15 -10 26 0 27 -30 24 -31 -3z"/>
<path d="M6765 3480 c-3 -5 1 -10 9 -10 9 0 16 5 16 10 0 6 -4 10 -9 10 -6 0
-13 -4 -16 -10z"/>
<path d="M6485 3420 c-3 -5 -1 -10 4 -10 6 0 11 5 11 10 0 6 -2 10 -4 10 -3 0
-8 -4 -11 -10z"/>
<path d="M2494 3398 c-7 -24 3 -38 27 -38 12 0 23 -10 29 -25 9 -22 23 -36 18
-17 -4 16 14 72 24 72 5 0 8 6 6 13 -3 7 -23 12 -51 12 -36 0 -48 -3 -53 -17z"/>
<path d="M6699 3393 c-13 -16 -12 -17 4 -4 9 7 17 15 17 17 0 8 -8 3 -21 -13z"/>
<path d="M5266 3371 c-4 -7 -5 -15 -2 -18 9 -9 19 4 14 18 -4 11 -6 11 -12 0z"/>
<path d="M6756 3333 c4 -16 11 -32 15 -37 14 -15 10 -30 -4 -18 -7 6 -19 7
-26 3 -9 -6 -4 -11 17 -19 40 -14 58 -2 40 27 -11 18 -11 23 2 32 13 9 13 10
-2 6 -10 -4 -18 1 -21 14 -8 31 -28 23 -21 -8z"/>
<path d="M2670 3350 c-8 -26 -7 -41 2 -32 6 6 8 16 5 24 -3 7 -6 11 -7 8z"/>
<path d="M3615 3330 c4 -6 11 -8 16 -5 14 9 11 15 -7 15 -8 0 -12 -5 -9 -10z"/>
<path d="M6479 3323 c-51 -36 -64 -75 -29 -93 11 -6 20 -7 19 -3 -4 23 3 33
25 33 21 0 24 5 24 35 0 43 -8 49 -39 28z"/>
<path d="M4650 3310 c30 -23 40 -25 40 -6 0 7 -10 16 -22 20 -39 10 -44 6 -18
-14z"/>
<path d="M2440 3284 c0 -17 22 -14 28 4 2 7 -3 12 -12 12 -9 0 -16 -7 -16 -16z"/>
<path d="M2860 3286 c0 -9 8 -24 19 -35 10 -10 21 -25 24 -32 4 -11 7 -12 18
-1 11 10 10 12 -2 12 -18 0 -21 29 -6 48 7 8 5 12 -6 12 -8 0 -22 3 -31 6 -11
4 -16 1 -16 -10z"/>
<path d="M2440 3221 c0 -5 6 -14 14 -20 12 -10 13 -8 9 8 -5 21 -23 30 -23 12z"/>
<path d="M3054 3212 c0 -14 6 -17 23 -14 13 2 23 9 23 14 0 5 -4 7 -9 3 -5 -3
-12 -1 -16 5 -10 16 -21 12 -21 -8z"/>
<path d="M6562 3220 c2 -6 18 -18 36 -26 27 -11 32 -11 32 1 0 8 -6 16 -12 17
-7 0 -17 2 -23 2 -5 1 -16 5 -24 10 -9 6 -12 5 -9 -4z"/>
<path d="M6779 3203 c-13 -17 -13 -17 6 -3 11 8 22 16 24 17 2 2 0 3 -6 3 -6
0 -17 -8 -24 -17z"/>
<path d="M2458 3163 c-36 -9 -19 -29 22 -25 26 3 40 9 40 18 0 14 -26 17 -62
7z"/>
<path d="M2580 3150 c-8 -5 -11 -12 -7 -16 4 -4 13 -2 19 4 15 15 7 24 -12 12z"/>
<path d="M2485 3110 c3 -5 13 -10 21 -10 8 0 12 5 9 10 -3 6 -13 10 -21 10 -8
0 -12 -4 -9 -10z"/>
<path d="M6546 3113 c-4 -5 -20 -8 -34 -8 -17 0 -28 -6 -30 -17 -3 -13 3 -18
22 -18 14 0 28 5 31 10 3 6 17 10 30 10 25 0 41 15 26 24 -5 4 -12 0 -14 -6
-4 -10 -6 -10 -6 0 -1 13 -14 16 -25 5z"/>
<path d="M6695 3047 c-4 -15 -5 -31 -2 -34 4 -3 0 -15 -8 -27 -29 -41 -5 -85
30 -56 16 13 14 74 -4 121 l-9 24 -7 -28z"/>
<path d="M3073 2969 c-14 -5 -23 -17 -23 -29 0 -15 7 -20 29 -20 33 0 49 26
29 46 -9 8 -21 9 -35 3z"/>
<path d="M3872 2938 c3 -7 13 -15 24 -17 16 -3 17 -1 5 13 -16 19 -34 21 -29
4z"/>
<path d="M6260 2930 c0 -22 1 -23 24 -14 23 9 20 34 -4 34 -13 0 -20 -7 -20
-20z"/>
<path d="M4940 2363 l-53 -47 29 -8 c31 -8 47 5 79 64 25 45 0 41 -55 -9z"/>
<path d="M4850 2295 c-7 -8 -8 -15 -2 -15 5 0 15 7 22 15 7 8 8 15 2 15 -5 0
-15 -7 -22 -15z"/>
<path d="M3115 1346 c-230 -81 -386 -179 -476 -297 -76 -100 -89 -185 -43
-277 106 -213 547 -332 1299 -352 744 -19 1554 39 2089 150 178 37 260 62 353
106 147 70 173 176 67 274 -104 95 -331 159 -704 199 -96 10 -180 16 -186 14
-29 -11 -66 -139 -43 -147 8 -3 113 -14 234 -26 319 -29 481 -61 615 -118 l45
-19 -34 -21 c-122 -74 -626 -140 -1436 -187 -418 -25 -1030 -36 -1273 -25
-452 21 -742 71 -865 150 -86 54 -86 108 1 201 95 103 196 166 437 270 61 26
114 54 120 63 6 10 4 26 -8 50 -22 47 -40 46 -192 -8z"/>
</g>
</svg>
